<svg width="38" height="38" viewBox="0 0 38 38" fill="none" xmlns="http://www.w3.org/2000/svg">
<path d="M8.70833 3.16663C7.65852 3.16663 6.6517 3.58366 5.90937 4.32599C5.16704 5.06833 4.75 6.07514 4.75 7.12496V30.875C4.75 31.9248 5.16704 32.9316 5.90937 33.6739C6.6517 34.4163 7.65852 34.8333 8.70833 34.8333H20.2825C19.6037 34.1267 19.029 33.327 18.5757 32.4583H8.70833C8.28841 32.4583 7.88568 32.2915 7.58875 31.9945C7.29182 31.6976 7.125 31.2949 7.125 30.875H17.9122C17.3277 29.0707 17.253 27.1401 17.6965 25.2961C18.1401 23.4521 19.0845 21.7666 20.4255 20.4255C21.7666 19.0844 23.4522 18.14 25.2961 17.6965C27.1401 17.253 29.0708 17.3276 30.875 17.9122V7.12496C30.875 6.07514 30.458 5.06833 29.7156 4.32599C28.9733 3.58366 27.9665 3.16663 26.9167 3.16663H8.70833ZM11.0833 7.91663H23.75C24.1699 7.91663 24.5727 8.08344 24.8696 8.38037C25.1665 8.67731 25.3333 9.08003 25.3333 9.49996V11.0833C25.3333 11.5032 25.1665 11.9059 24.8696 12.2029C24.5727 12.4998 24.1699 12.6666 23.75 12.6666H11.0833C10.6634 12.6666 10.2607 12.4998 9.96375 12.2029C9.66682 11.9059 9.5 11.5032 9.5 11.0833V9.49996C9.5 9.08003 9.66682 8.67731 9.96375 8.38037C10.2607 8.08344 10.6634 7.91663 11.0833 7.91663V7.91663ZM36.4167 27.7083C36.4167 25.3987 35.4992 23.1837 33.8661 21.5506C32.2329 19.9174 30.0179 19 27.7083 19C25.3987 19 23.1837 19.9174 21.5506 21.5506C19.9175 23.1837 19 25.3987 19 27.7083C19 30.0179 19.9175 32.2329 21.5506 33.866C23.1837 35.4991 25.3987 36.4166 27.7083 36.4166C30.0179 36.4166 32.2329 35.4991 33.8661 33.866C35.4992 32.2329 36.4167 30.0179 36.4167 27.7083ZM28.5 28.5L28.5016 32.463C28.5016 32.673 28.4182 32.8744 28.2697 33.0228C28.1212 33.1713 27.9199 33.2547 27.7099 33.2547C27.5 33.2547 27.2986 33.1713 27.1501 33.0228C27.0017 32.8744 26.9182 32.673 26.9182 32.463V28.5H22.952C22.742 28.5 22.5407 28.4166 22.3922 28.2681C22.2437 28.1196 22.1603 27.9183 22.1603 27.7083C22.1603 27.4983 22.2437 27.297 22.3922 27.1485C22.5407 27 22.742 26.9166 22.952 26.9166H26.9167V22.9583C26.9167 22.7483 27.0001 22.547 27.1485 22.3985C27.297 22.25 27.4984 22.1666 27.7083 22.1666C27.9183 22.1666 28.1197 22.25 28.2681 22.3985C28.4166 22.547 28.5 22.7483 28.5 22.9583V26.9166H32.4631C32.673 26.9166 32.8744 27 33.0229 27.1485C33.1713 27.297 33.2547 27.4983 33.2547 27.7083C33.2547 27.9183 33.1713 28.1196 33.0229 28.2681C32.8744 28.4166 32.673 28.5 32.4631 28.5H28.5016H28.5Z" fill="#504465"/>
</svg>
