<svg width="38" height="38" viewBox="0 0 38 38" fill="none" xmlns="http://www.w3.org/2000/svg">
<path d="M8.70833 3.16669C7.65852 3.16669 6.6517 3.58372 5.90937 4.32606C5.16704 5.06839 4.75 6.07521 4.75 7.12502V30.875C4.75 31.9248 5.16704 32.9317 5.90937 33.674C6.6517 34.4163 7.65852 34.8334 8.70833 34.8334H20.2825C19.6037 34.1267 19.029 33.327 18.5757 32.4584H8.70833C8.28841 32.4584 7.88568 32.2915 7.58875 31.9946C7.29182 31.6977 7.125 31.2949 7.125 30.875H17.9122C17.3277 29.0708 17.253 27.1401 17.6965 25.2962C18.1401 23.4522 19.0845 21.7666 20.4255 20.4256C21.7666 19.0845 23.4522 18.1401 25.2961 17.6966C27.1401 17.2531 29.0708 17.3277 30.875 17.9123V7.12502C30.875 6.07521 30.458 5.06839 29.7156 4.32606C28.9733 3.58372 27.9665 3.16669 26.9167 3.16669H8.70833ZM11.0833 7.91669H23.75C24.1699 7.91669 24.5727 8.0835 24.8696 8.38044C25.1665 8.67737 25.3333 9.08009 25.3333 9.50002V11.0834C25.3333 11.5033 25.1665 11.906 24.8696 12.2029C24.5727 12.4999 24.1699 12.6667 23.75 12.6667H11.0833C10.6634 12.6667 10.2607 12.4999 9.96375 12.2029C9.66682 11.906 9.5 11.5033 9.5 11.0834V9.50002C9.5 9.08009 9.66682 8.67737 9.96375 8.38044C10.2607 8.0835 10.6634 7.91669 11.0833 7.91669V7.91669ZM36.4167 27.7084C36.4167 25.3988 35.4992 23.1838 33.8661 21.5506C32.2329 19.9175 30.0179 19 27.7083 19C25.3987 19 23.1837 19.9175 21.5506 21.5506C19.9175 23.1838 19 25.3988 19 27.7084C19 30.0179 19.9175 32.2329 21.5506 33.8661C23.1837 35.4992 25.3987 36.4167 27.7083 36.4167C30.0179 36.4167 32.2329 35.4992 33.8661 33.8661C35.4992 32.2329 36.4167 30.0179 36.4167 27.7084ZM28.5 28.5L28.5016 32.4631C28.5016 32.6731 28.4182 32.8744 28.2697 33.0229C28.1212 33.1714 27.9199 33.2548 27.7099 33.2548C27.5 33.2548 27.2986 33.1714 27.1501 33.0229C27.0017 32.8744 26.9182 32.6731 26.9182 32.4631V28.5H22.952C22.742 28.5 22.5407 28.4166 22.3922 28.2681C22.2437 28.1197 22.1603 27.9183 22.1603 27.7084C22.1603 27.4984 22.2437 27.297 22.3922 27.1486C22.5407 27.0001 22.742 26.9167 22.952 26.9167H26.9167V22.9584C26.9167 22.7484 27.0001 22.547 27.1485 22.3986C27.297 22.2501 27.4984 22.1667 27.7083 22.1667C27.9183 22.1667 28.1197 22.2501 28.2681 22.3986C28.4166 22.547 28.5 22.7484 28.5 22.9584V26.9167H32.4631C32.673 26.9167 32.8744 27.0001 33.0229 27.1486C33.1713 27.297 33.2547 27.4984 33.2547 27.7084C33.2547 27.9183 33.1713 28.1197 33.0229 28.2681C32.8744 28.4166 32.673 28.5 32.4631 28.5H28.5016H28.5Z" fill="white"/>
</svg>
