<svg width="35" height="38" viewBox="0 0 35 38" fill="none" xmlns="http://www.w3.org/2000/svg">
<path d="M3.28119 0C1.4656 0 0 1.56265 0 3.4938V33.7695C0 35.7007 1.46779 37.2633 3.28119 37.2633H5.46866C7.27769 37.2633 8.74766 35.7007 8.74766 33.7695V3.4938C8.74766 1.56265 7.27769 0 5.46647 0H3.27901H3.28119ZM14.2141 0C12.4029 0 10.9329 1.56265 10.9329 3.4938V33.7695C10.9329 35.7007 12.4029 37.2633 14.2141 37.2633H16.4016C18.2128 37.2633 19.6806 35.7007 19.6806 33.7695V3.4938C19.6806 1.56498 18.2128 0 16.3994 0H14.2119H14.2141ZM30.0076 9.69541C29.9077 9.23371 29.7208 8.79847 29.4584 8.41609C29.1959 8.03371 28.8633 7.71216 28.4808 7.47095C28.0983 7.22973 27.6738 7.07388 27.2331 7.01284C26.7924 6.95181 26.3447 6.98686 25.9171 7.11588L24.2874 7.60566C23.4912 7.84567 22.8097 8.39791 22.3796 9.15152C21.9495 9.90513 21.8027 10.8043 21.9687 11.6685L26.3502 34.5228C26.4397 34.9861 26.6164 35.4251 26.8695 35.8135C27.1227 36.2019 27.4471 36.5315 27.8231 36.7824C28.1991 37.0333 28.6189 37.2003 29.0572 37.2734C29.4954 37.3464 29.943 37.324 30.3729 37.2073L32.5276 36.6243C34.2557 36.1578 35.3144 34.3059 34.9163 32.4564L30.0076 9.69308V9.69541Z" fill="#4A4453"/>
</svg>
