<svg width="25" height="23" viewBox="0 0 25 23" fill="none" xmlns="http://www.w3.org/2000/svg">
<path d="M23.5 12.5887C24.3284 12.5887 25 11.9172 25 11.0887C25 10.2603 24.3284 9.58873 23.5 9.58873L23.5 12.5887ZM0.93934 10.0281C0.353554 10.6138 0.353553 11.5636 0.93934 12.1494L10.4853 21.6953C11.0711 22.2811 12.0208 22.2811 12.6066 21.6953C13.1924 21.1095 13.1924 20.1598 12.6066 19.574L4.12132 11.0887L12.6066 2.60344C13.1924 2.01766 13.1924 1.06791 12.6066 0.482123C12.0208 -0.103664 11.0711 -0.103665 10.4853 0.482122L0.93934 10.0281ZM23.5 9.58873L2 9.58872L2 12.5887L23.5 12.5887L23.5 9.58873Z" fill="#4A4453"/>
</svg>
