<svg width="120" height="79" viewBox="0 0 120 79" fill="none" xmlns="http://www.w3.org/2000/svg">
<path d="M32.9788 33.4861C32.9788 32.5604 33.7293 31.8099 34.655 31.8099H98.6347V43.4648H34.655C33.7293 43.4648 32.9788 42.7144 32.9788 41.7887V33.4861Z" fill="#627B81"/>
<path d="M27.1514 69.6164C27.1514 68.6906 27.9018 67.9402 28.8275 67.9402H92.8073V78.4296H28.8275C27.9018 78.4296 27.1514 77.6791 27.1514 76.7534V69.6164Z" fill="#00525D"/>
<path d="M12 45.141C12 44.2153 12.7504 43.4648 13.6762 43.4648H86.9798V56.6737H13.6762C12.7504 56.6737 12 55.9233 12 54.9976V45.141Z" fill="#504465"/>
<path d="M18.6045 58.35C18.6045 57.4243 19.3549 56.6738 20.2807 56.6738H80.3755V67.9402H20.2807C19.3549 67.9402 18.6045 67.1898 18.6045 66.2641V58.35Z" fill="#95B0B5"/>
<path d="M108.983 43.8357C108.927 43.4696 109.179 43.1279 109.545 43.0724L113.981 42.4001C114.347 42.3446 114.689 42.5964 114.745 42.9625L119.9 76.9748C119.955 77.3409 119.703 77.6827 119.337 77.7382L114.901 78.4105C114.535 78.466 114.193 78.2142 114.138 77.8481L108.983 43.8357Z" fill="#95B0B5"/>
<rect x="98.6347" y="13" width="10.4894" height="65.2674" rx="0.670466" fill="#504465"/>
<rect x="34.9213" y="32.9755" width="63.7134" height="9.32392" fill="#EDE6E6"/>
<rect x="14.7195" y="44.6304" width="72.2604" height="10.8779" fill="#EDE6E6"/>
<rect x="29.4823" y="69.4941" width="63.3249" height="7.38144" fill="#EDE6E6"/>
<rect x="21.3239" y="57.8391" width="59.0515" height="8.93542" fill="#EDE6E6"/>
<line x1="34.9213" y1="34.3352" x2="98.6348" y2="34.3352" stroke="#575172" stroke-opacity="0.3" stroke-width="0.388497"/>
<line x1="34.9213" y1="35.8891" x2="98.6348" y2="35.8891" stroke="#575172" stroke-opacity="0.3" stroke-width="0.388497"/>
<line x1="34.9213" y1="37.8316" x2="98.6348" y2="37.8316" stroke="#575172" stroke-opacity="0.3" stroke-width="0.388497"/>
<line x1="34.9213" y1="39.3856" x2="98.6348" y2="39.3856" stroke="#575172" stroke-opacity="0.3" stroke-width="0.388497"/>
<line x1="34.9213" y1="40.9397" x2="98.6348" y2="40.9397" stroke="#575172" stroke-opacity="0.3" stroke-width="0.388497"/>
<line x1="14.7195" y1="45.9901" x2="86.9799" y2="45.9901" stroke="#2A3B53" stroke-opacity="0.3" stroke-width="0.388497"/>
<line x1="14.7195" y1="47.544" x2="86.9799" y2="47.544" stroke="#2A3B53" stroke-opacity="0.3" stroke-width="0.388497"/>
<line x1="14.7195" y1="49.4867" x2="86.9799" y2="49.4867" stroke="#2A3B53" stroke-opacity="0.3" stroke-width="0.388497"/>
<line x1="14.7195" y1="54.1485" x2="86.9799" y2="54.1485" stroke="#2A3B53" stroke-opacity="0.3" stroke-width="0.388497"/>
<line x1="14.7195" y1="51.0406" x2="86.9799" y2="51.0406" stroke="#2A3B53" stroke-opacity="0.3" stroke-width="0.388497"/>
<line x1="14.7195" y1="52.5946" x2="86.9799" y2="52.5946" stroke="#2A3B53" stroke-opacity="0.3" stroke-width="0.388497"/>
<line x1="21.3242" y1="59.1991" x2="80.3757" y2="59.1991" stroke="#154458" stroke-opacity="0.3" stroke-width="0.388497"/>
<line x1="21.3239" y1="60.753" x2="80.3753" y2="60.753" stroke="#154458" stroke-opacity="0.3" stroke-width="0.388497"/>
<line x1="21.3239" y1="62.307" x2="80.3753" y2="62.307" stroke="#154458" stroke-opacity="0.3" stroke-width="0.388497"/>
<line x1="21.3239" y1="63.8609" x2="80.3753" y2="63.8609" stroke="#154458" stroke-opacity="0.3" stroke-width="0.388497"/>
<line x1="21.3239" y1="65.4151" x2="80.3753" y2="65.4151" stroke="#154458" stroke-opacity="0.3" stroke-width="0.388497"/>
<line x1="29.4828" y1="70.8538" x2="92.8077" y2="70.8538" stroke="#004149" stroke-opacity="0.3" stroke-width="0.388497"/>
<line x1="29.4825" y1="72.4078" x2="92.8075" y2="72.4078" stroke="#004149" stroke-opacity="0.3" stroke-width="0.388497"/>
<line x1="29.4825" y1="73.9618" x2="92.8075" y2="73.9618" stroke="#004149" stroke-opacity="0.3" stroke-width="0.388497"/>
<line x1="29.4825" y1="75.5157" x2="92.8075" y2="75.5157" stroke="#004149" stroke-opacity="0.3" stroke-width="0.388497"/>
<path d="M39.5833 33.7524C39.5833 33.5378 39.7572 33.3639 39.9717 33.3639H43.8567C44.0713 33.3639 44.2452 33.5378 44.2452 33.7524V38.7504C44.2452 39.0798 43.861 39.2597 43.608 39.0488L42.1629 37.8446C42.0189 37.7246 41.8096 37.7246 41.6655 37.8446L40.2205 39.0488C39.9674 39.2597 39.5833 39.0798 39.5833 38.7504V33.7524Z" fill="#504465"/>
<path d="M25.9858 60.9471C25.9858 60.7325 26.1598 60.5586 26.3743 60.5586H30.2593C30.4739 60.5586 30.6478 60.7325 30.6478 60.9471V65.9451C30.6478 66.2745 30.2636 66.4544 30.0106 66.2435L28.5655 65.0393C28.4215 64.9193 28.2122 64.9193 28.0681 65.0393L26.623 66.2435C26.37 66.4544 25.9858 66.2745 25.9858 65.9451V60.9471Z" fill="#827598"/>
<rect x="98.6347" y="22.0975" width="10.4894" height="5.82745" fill="#827598"/>
<line x1="98.6347" y1="19.378" x2="109.124" y2="19.378" stroke="#827698" stroke-width="1.55399"/>
<line x1="98.6347" y1="30.6445" x2="109.124" y2="30.6445" stroke="#827598" stroke-width="1.55399"/>
<path d="M36.0322 0.717852C35.805 0.489898 35.535 0.309118 35.2378 0.185919C34.9405 0.0627203 34.6218 -0.00046415 34.3 2.5668e-06H14.7C14.3782 -0.00046415 14.0595 0.0627203 13.7622 0.185919C13.465 0.309118 13.195 0.489898 12.9679 0.717852L0.717852 12.9679C0.489898 13.195 0.309118 13.465 0.185919 13.7622C0.0627203 14.0595 -0.00046415 14.3782 2.5668e-06 14.7V34.3C2.5668e-06 34.9517 0.257253 35.574 0.717852 36.0322L12.9679 48.2822C13.195 48.5101 13.465 48.6909 13.7622 48.8141C14.0595 48.9373 14.3782 49.0005 14.7 49H34.3C34.9517 49 35.574 48.7428 36.0322 48.2822L48.2822 36.0322C48.5101 35.805 48.6909 35.535 48.8141 35.2378C48.9373 34.9405 49.0005 34.6218 49 34.3V14.7C49.0005 14.3782 48.9373 14.0595 48.8141 13.7622C48.6909 13.465 48.5101 13.195 48.2822 12.9679L36.0322 0.717852ZM26.95 36.75H22.05V31.85H26.95V36.75ZM26.95 26.95H22.05V12.25H26.95V26.95Z" fill="#504465"/>
</svg>
