<svg width="63" height="24" viewBox="0 0 63 24" fill="none" xmlns="http://www.w3.org/2000/svg">
<path d="M18.043 0.386719V5.48926L6.37305 11.8369V12.1543L18.043 18.8438V23.6289L0.611328 13.6924V10.2744L18.043 0.386719ZM42.1152 13.6924L24.6836 23.6289V18.8438L36.3535 12.1543V11.8369L24.6836 5.48926V0.386719L42.1152 10.2744V13.6924ZM62.7695 0.386719V5.48926L51.0996 11.8369V12.1543L62.7695 18.8438V23.6289L45.3379 13.6924V10.2744L62.7695 0.386719Z" fill="white"/>
<path d="M18.043 0.386719H18.543V-0.471731L17.7963 -0.0481882L18.043 0.386719ZM18.043 5.48926L18.2819 5.92849L18.543 5.78647V5.48926H18.043ZM6.37305 11.8369L6.13414 11.3977L5.87305 11.5397V11.8369H6.37305ZM6.37305 12.1543H5.87305V12.444L6.12439 12.5881L6.37305 12.1543ZM18.043 18.8438H18.543V18.554L18.2916 18.41L18.043 18.8438ZM18.043 23.6289L17.7954 24.0633L18.543 24.4894V23.6289H18.043ZM0.611328 13.6924H0.111328V13.9829L0.363717 14.1268L0.611328 13.6924ZM0.611328 10.2744L0.364637 9.83951L0.111328 9.98319V10.2744H0.611328ZM17.543 0.386719V5.48926H18.543V0.386719H17.543ZM17.8041 5.05003L6.13414 11.3977L6.61196 12.2761L18.2819 5.92849L17.8041 5.05003ZM5.87305 11.8369V12.1543H6.87305V11.8369H5.87305ZM6.12439 12.5881L17.7943 19.2775L18.2916 18.41L6.6217 11.7205L6.12439 12.5881ZM17.543 18.8438V23.6289H18.543V18.8438H17.543ZM18.2906 23.1945L0.858939 13.258L0.363717 14.1268L17.7954 24.0633L18.2906 23.1945ZM1.11133 13.6924V10.2744H0.111328V13.6924H1.11133ZM0.858019 10.7093L18.2897 0.821626L17.7963 -0.0481882L0.364637 9.83951L0.858019 10.7093ZM42.1152 13.6924L42.3628 14.1268L42.6152 13.9829V13.6924H42.1152ZM24.6836 23.6289H24.1836V24.4894L24.9312 24.0633L24.6836 23.6289ZM24.6836 18.8438L24.4349 18.41L24.1836 18.554V18.8438H24.6836ZM36.3535 12.1543L36.6022 12.5881L36.8535 12.444V12.1543H36.3535ZM36.3535 11.8369H36.8535V11.5397L36.5924 11.3977L36.3535 11.8369ZM24.6836 5.48926H24.1836V5.78647L24.4447 5.92849L24.6836 5.48926ZM24.6836 0.386719L24.9303 -0.0481882L24.1836 -0.471731V0.386719H24.6836ZM42.1152 10.2744H42.6152V9.98319L42.3619 9.83951L42.1152 10.2744ZM41.8676 13.258L24.436 23.1945L24.9312 24.0633L42.3628 14.1268L41.8676 13.258ZM25.1836 23.6289V18.8438H24.1836V23.6289H25.1836ZM24.9322 19.2775L36.6022 12.5881L36.1049 11.7205L24.4349 18.41L24.9322 19.2775ZM36.8535 12.1543V11.8369H35.8535V12.1543H36.8535ZM36.5924 11.3977L24.9225 5.05003L24.4447 5.92849L36.1146 12.2761L36.5924 11.3977ZM25.1836 5.48926V0.386719H24.1836V5.48926H25.1836ZM24.4369 0.821626L41.8685 10.7093L42.3619 9.83951L24.9303 -0.0481882L24.4369 0.821626ZM41.6152 10.2744V13.6924H42.6152V10.2744H41.6152ZM62.7695 0.386719H63.2695V-0.471731L62.5228 -0.0481882L62.7695 0.386719ZM62.7695 5.48926L63.0084 5.92849L63.2695 5.78647V5.48926H62.7695ZM51.0996 11.8369L50.8607 11.3977L50.5996 11.5397V11.8369H51.0996ZM51.0996 12.1543H50.5996V12.444L50.851 12.5881L51.0996 12.1543ZM62.7695 18.8438H63.2695V18.554L63.0182 18.41L62.7695 18.8438ZM62.7695 23.6289L62.5219 24.0633L63.2695 24.4894V23.6289H62.7695ZM45.3379 13.6924H44.8379V13.9829L45.0903 14.1268L45.3379 13.6924ZM45.3379 10.2744L45.0912 9.83951L44.8379 9.98319V10.2744H45.3379ZM62.2695 0.386719V5.48926H63.2695V0.386719H62.2695ZM62.5306 5.05003L50.8607 11.3977L51.3385 12.2761L63.0084 5.92849L62.5306 5.05003ZM50.5996 11.8369V12.1543H51.5996V11.8369H50.5996ZM50.851 12.5881L62.5209 19.2775L63.0182 18.41L51.3483 11.7205L50.851 12.5881ZM62.2695 18.8438V23.6289H63.2695V18.8438H62.2695ZM63.0171 23.1945L45.5855 13.258L45.0903 14.1268L62.5219 24.0633L63.0171 23.1945ZM45.8379 13.6924V10.2744H44.8379V13.6924H45.8379ZM45.5846 10.7093L63.0162 0.821626L62.5228 -0.0481882L45.0912 9.83951L45.5846 10.7093Z" fill="white"/>
</svg>
