<svg width="231" height="140" viewBox="0 0 231 140" fill="none" xmlns="http://www.w3.org/2000/svg">
<path d="M44.6786 43.6293C44.6786 41.6577 46.2769 40.0595 48.2484 40.0595H184.506V64.881H48.2484C46.2769 64.881 44.6786 63.2827 44.6786 61.3112V43.6293Z" fill="#627B81"/>
<path d="M32.2678 120.576C32.2678 118.604 33.866 117.006 35.8376 117.006H172.095V139.345H35.8376C33.8661 139.345 32.2678 137.747 32.2678 135.776V120.576Z" fill="#00525D"/>
<path d="M0 68.4507C0 66.4792 1.59822 64.881 3.56973 64.881H159.685V93.0119H3.56973C1.59822 93.0119 0 91.4137 0 89.4422V68.4507Z" fill="#504465"/>
<path d="M14.0656 96.5816C14.0656 94.6101 15.6638 93.0119 17.6353 93.0119H145.619V117.006H17.6353C15.6638 117.006 14.0656 115.408 14.0656 113.436V96.5816Z" fill="#95B0B5"/>
<path d="M206.544 65.6709C206.426 64.8912 206.962 64.1634 207.742 64.0452L217.189 62.6134C217.969 62.4952 218.697 63.0315 218.815 63.8112L229.794 136.247C229.912 137.027 229.375 137.755 228.596 137.873L219.149 139.305C218.369 139.423 217.641 138.887 217.523 138.107L206.544 65.6709Z" fill="#95B0B5"/>
<rect x="184.506" width="22.3393" height="139" rx="1.42789" fill="#504465"/>
<rect x="48.8156" y="42.5417" width="135.69" height="19.8571" fill="#EDE6E6"/>
<rect x="5.79156" y="67.3631" width="153.893" height="23.1667" fill="#EDE6E6"/>
<rect x="37.2321" y="120.315" width="134.863" height="15.7202" fill="#EDE6E6"/>
<rect x="19.8571" y="95.494" width="125.762" height="19.0298" fill="#EDE6E6"/>
<line x1="48.8156" y1="45.4375" x2="184.506" y2="45.4375" stroke="#575172" stroke-opacity="0.3" stroke-width="0.827381"/>
<line x1="48.8157" y1="48.747" x2="184.506" y2="48.747" stroke="#575172" stroke-opacity="0.3" stroke-width="0.827381"/>
<line x1="48.8157" y1="52.8839" x2="184.506" y2="52.8839" stroke="#575172" stroke-opacity="0.3" stroke-width="0.827381"/>
<line x1="48.8157" y1="56.1934" x2="184.506" y2="56.1935" stroke="#575172" stroke-opacity="0.3" stroke-width="0.827381"/>
<line x1="48.8157" y1="59.503" x2="184.506" y2="59.503" stroke="#575172" stroke-opacity="0.3" stroke-width="0.827381"/>
<line x1="5.79199" y1="70.2589" x2="159.685" y2="70.2589" stroke="#2A3B53" stroke-opacity="0.3" stroke-width="0.827381"/>
<line x1="5.79163" y1="73.5685" x2="159.684" y2="73.5685" stroke="#2A3B53" stroke-opacity="0.3" stroke-width="0.827381"/>
<line x1="5.79163" y1="77.7054" x2="159.684" y2="77.7054" stroke="#2A3B53" stroke-opacity="0.3" stroke-width="0.827381"/>
<line x1="5.79163" y1="87.6339" x2="159.684" y2="87.6339" stroke="#2A3B53" stroke-opacity="0.3" stroke-width="0.827381"/>
<line x1="5.79163" y1="81.0149" x2="159.684" y2="81.0149" stroke="#2A3B53" stroke-opacity="0.3" stroke-width="0.827381"/>
<line x1="5.79163" y1="84.3244" x2="159.684" y2="84.3244" stroke="#2A3B53" stroke-opacity="0.3" stroke-width="0.827381"/>
<line x1="19.8575" y1="98.3899" x2="145.619" y2="98.3899" stroke="#154458" stroke-opacity="0.3" stroke-width="0.827381"/>
<line x1="19.8572" y1="101.699" x2="145.619" y2="101.699" stroke="#154458" stroke-opacity="0.3" stroke-width="0.827381"/>
<line x1="19.8572" y1="105.009" x2="145.619" y2="105.009" stroke="#154458" stroke-opacity="0.3" stroke-width="0.827381"/>
<line x1="19.8572" y1="108.318" x2="145.619" y2="108.318" stroke="#154458" stroke-opacity="0.3" stroke-width="0.827381"/>
<line x1="19.8572" y1="111.628" x2="145.619" y2="111.628" stroke="#154458" stroke-opacity="0.3" stroke-width="0.827381"/>
<line x1="37.2327" y1="123.211" x2="172.096" y2="123.211" stroke="#004149" stroke-opacity="0.3" stroke-width="0.827381"/>
<line x1="37.2323" y1="126.521" x2="172.095" y2="126.521" stroke="#004149" stroke-opacity="0.3" stroke-width="0.827381"/>
<line x1="37.2323" y1="129.83" x2="172.095" y2="129.83" stroke="#004149" stroke-opacity="0.3" stroke-width="0.827381"/>
<line x1="37.2323" y1="133.14" x2="172.095" y2="133.14" stroke="#004149" stroke-opacity="0.3" stroke-width="0.827381"/>
<path d="M58.744 44.1964C58.744 43.7395 59.1144 43.369 59.5714 43.369H67.8452C68.3022 43.369 68.6726 43.7395 68.6726 44.1964V54.8407C68.6726 55.5421 67.8544 55.9253 67.3155 55.4763L64.238 52.9116C63.9311 52.6559 63.4855 52.6559 63.1786 52.9116L60.1011 55.4763C59.5622 55.9253 58.744 55.5421 58.744 54.8407V44.1964Z" fill="#504465"/>
<path d="M29.7856 102.113C29.7856 101.656 30.1561 101.286 30.613 101.286H38.8868C39.3438 101.286 39.7142 101.656 39.7142 102.113V112.757C39.7142 113.459 38.8961 113.842 38.3572 113.393L35.2796 110.828C34.9728 110.573 34.5271 110.573 34.2203 110.828L31.1427 113.393C30.6038 113.842 29.7856 113.459 29.7856 112.757V102.113Z" fill="#827598"/>
<rect x="184.506" y="19.375" width="22.3393" height="12.4107" fill="#827598"/>
<line x1="184.506" y1="13.5833" x2="206.845" y2="13.5833" stroke="#827698" stroke-width="3.30952"/>
<line x1="184.506" y1="37.5774" x2="206.845" y2="37.5774" stroke="#827598" stroke-width="3.30952"/>
</svg>
