<svg width="35" height="32" viewBox="0 0 35 32" fill="none" xmlns="http://www.w3.org/2000/svg">
<path d="M7.11822 12.3562L9.60482 10.8621C10.3504 10.4141 11.318 10.6554 11.7659 11.4009C12.2139 12.1465 11.9726 13.114 11.2271 13.562L4.35459 17.6914L0.225191 10.8189C-0.222797 10.0734 0.0184493 9.10579 0.763987 8.6578C1.50956 8.20985 2.47712 8.4511 2.92508 9.19664L4.15916 11.2505C5.47671 6.83099 8.69137 3.12538 13.0966 1.25543C21.1012 -2.14231 30.3452 1.594 33.7437 9.60042C37.1422 17.6068 33.4085 26.8518 25.4039 30.2496C19.6239 32.703 13.0173 31.4758 8.50407 27.2659C7.86802 26.6726 7.83337 25.676 8.42668 25.04C9.01996 24.4039 10.0165 24.3693 10.6526 24.9625C14.2641 28.3313 19.5488 29.3131 24.1732 27.3501C30.5763 24.6322 33.5631 17.2364 30.8443 10.8311C28.1254 4.42582 20.7304 1.43687 14.3274 4.15483C10.7347 5.6798 8.13278 8.72921 7.11822 12.3562Z" fill="#4A4453"/>
</svg>
