<svg width="116" height="78" viewBox="0 0 116 78" fill="none" xmlns="http://www.w3.org/2000/svg">
<path d="M28.9789 32.4861C28.9789 31.5604 29.7293 30.8099 30.655 30.8099H94.6348V42.4648H30.655C29.7293 42.4648 28.9789 41.7144 28.9789 40.7887V32.4861Z" fill="#627B81"/>
<path d="M23.1514 68.6163C23.1514 67.6906 23.9019 66.9401 24.8276 66.9401H88.8073V77.4295H24.8276C23.9019 77.4295 23.1514 76.6791 23.1514 75.7534V68.6163Z" fill="#00525D"/>
<path d="M8.00006 44.141C8.00006 43.2153 8.75051 42.4648 9.67623 42.4648H82.9799V55.6737H9.67623C8.75051 55.6737 8.00006 54.9233 8.00006 53.9976V44.141Z" fill="#504465"/>
<path d="M14.6045 57.3499C14.6045 56.4242 15.355 55.6737 16.2807 55.6737H76.3755V66.9401H16.2807C15.355 66.9401 14.6045 66.1897 14.6045 65.2639V57.3499Z" fill="#95B0B5"/>
<path d="M104.983 42.8357C104.927 42.4696 105.179 42.1279 105.545 42.0724L109.981 41.4001C110.347 41.3446 110.689 41.5964 110.745 41.9625L115.9 75.9748C115.955 76.3409 115.703 76.6827 115.337 76.7382L110.901 77.4105C110.535 77.466 110.193 77.2142 110.138 76.8481L104.983 42.8357Z" fill="#95B0B5"/>
<rect x="94.6348" y="12" width="10.4894" height="65.2674" rx="0.670466" fill="#504465"/>
<rect x="30.9214" y="31.9754" width="63.7134" height="9.32392" fill="#EDE6E6"/>
<rect x="10.7195" y="43.6303" width="72.2604" height="10.8779" fill="#EDE6E6"/>
<rect x="25.4824" y="68.4941" width="63.3249" height="7.38144" fill="#EDE6E6"/>
<rect x="17.324" y="56.8392" width="59.0515" height="8.93542" fill="#EDE6E6"/>
<line x1="30.9214" y1="33.3352" x2="94.6348" y2="33.3352" stroke="#575172" stroke-opacity="0.3" stroke-width="0.388497"/>
<line x1="30.9214" y1="34.8891" x2="94.6348" y2="34.8891" stroke="#575172" stroke-opacity="0.3" stroke-width="0.388497"/>
<line x1="30.9214" y1="36.8316" x2="94.6348" y2="36.8316" stroke="#575172" stroke-opacity="0.3" stroke-width="0.388497"/>
<line x1="30.9214" y1="38.3856" x2="94.6348" y2="38.3856" stroke="#575172" stroke-opacity="0.3" stroke-width="0.388497"/>
<line x1="30.9214" y1="39.9396" x2="94.6348" y2="39.9396" stroke="#575172" stroke-opacity="0.3" stroke-width="0.388497"/>
<line x1="10.7196" y1="44.9901" x2="82.9799" y2="44.9901" stroke="#2A3B53" stroke-opacity="0.3" stroke-width="0.388497"/>
<line x1="10.7195" y1="46.5441" x2="82.9799" y2="46.5441" stroke="#2A3B53" stroke-opacity="0.3" stroke-width="0.388497"/>
<line x1="10.7195" y1="48.4865" x2="82.9799" y2="48.4865" stroke="#2A3B53" stroke-opacity="0.3" stroke-width="0.388497"/>
<line x1="10.7195" y1="53.1485" x2="82.9799" y2="53.1485" stroke="#2A3B53" stroke-opacity="0.3" stroke-width="0.388497"/>
<line x1="10.7195" y1="50.0406" x2="82.9799" y2="50.0406" stroke="#2A3B53" stroke-opacity="0.3" stroke-width="0.388497"/>
<line x1="10.7195" y1="51.5945" x2="82.9799" y2="51.5945" stroke="#2A3B53" stroke-opacity="0.3" stroke-width="0.388497"/>
<line x1="17.3243" y1="58.1989" x2="76.3758" y2="58.1989" stroke="#154458" stroke-opacity="0.3" stroke-width="0.388497"/>
<line x1="17.3239" y1="59.753" x2="76.3754" y2="59.753" stroke="#154458" stroke-opacity="0.3" stroke-width="0.388497"/>
<line x1="17.3239" y1="61.3069" x2="76.3754" y2="61.3069" stroke="#154458" stroke-opacity="0.3" stroke-width="0.388497"/>
<line x1="17.3239" y1="62.8609" x2="76.3754" y2="62.8609" stroke="#154458" stroke-opacity="0.3" stroke-width="0.388497"/>
<line x1="17.3239" y1="64.4149" x2="76.3754" y2="64.4149" stroke="#154458" stroke-opacity="0.3" stroke-width="0.388497"/>
<line x1="25.4828" y1="69.8538" x2="88.8078" y2="69.8538" stroke="#004149" stroke-opacity="0.3" stroke-width="0.388497"/>
<line x1="25.4826" y1="71.4078" x2="88.8075" y2="71.4078" stroke="#004149" stroke-opacity="0.3" stroke-width="0.388497"/>
<line x1="25.4826" y1="72.9618" x2="88.8075" y2="72.9618" stroke="#004149" stroke-opacity="0.3" stroke-width="0.388497"/>
<line x1="25.4826" y1="74.5158" x2="88.8075" y2="74.5158" stroke="#004149" stroke-opacity="0.3" stroke-width="0.388497"/>
<path d="M35.5833 32.7524C35.5833 32.5379 35.7572 32.364 35.9718 32.364H39.8568C40.0713 32.364 40.2453 32.5379 40.2453 32.7524V37.7504C40.2453 38.0798 39.8611 38.2598 39.6081 38.0489L38.163 36.8447C38.0189 36.7246 37.8097 36.7246 37.6656 36.8447L36.2205 38.0489C35.9675 38.2598 35.5833 38.0798 35.5833 37.7504V32.7524Z" fill="#504465"/>
<path d="M21.9859 59.9472C21.9859 59.7327 22.1598 59.5587 22.3744 59.5587H26.2594C26.4739 59.5587 26.6479 59.7327 26.6479 59.9472V64.9452C26.6479 65.2746 26.2637 65.4545 26.0107 65.2437L24.5656 64.0394C24.4215 63.9194 24.2122 63.9194 24.0682 64.0394L22.6231 65.2437C22.3701 65.4545 21.9859 65.2746 21.9859 64.9452V59.9472Z" fill="#827598"/>
<rect x="94.6348" y="21.0975" width="10.4894" height="5.82745" fill="#827598"/>
<line x1="94.6348" y1="18.378" x2="105.124" y2="18.378" stroke="#827698" stroke-width="1.55399"/>
<line x1="94.6348" y1="29.6445" x2="105.124" y2="29.6445" stroke="#827598" stroke-width="1.55399"/>
<path d="M23.2778 0.777771C18.8278 0.777771 14.4776 2.09737 10.7775 4.5697C7.0774 7.04203 4.19352 10.5561 2.49055 14.6674C0.787581 18.7787 0.342006 23.3027 1.21017 27.6673C2.07834 32.0319 4.22126 36.041 7.36794 39.1877C10.5146 42.3343 14.5237 44.4773 18.8883 45.3454C23.2529 46.2136 27.7769 45.768 31.8882 44.0651C35.9995 42.3621 39.5136 39.4782 41.9859 35.7781C44.4582 32.078 45.7778 27.7278 45.7778 23.2778C45.7778 17.3104 43.4073 11.5874 39.1877 7.36787C34.9682 3.1483 29.2452 0.777771 23.2778 0.777771V0.777771ZM37.9731 15.7262L19.495 34.1903L8.58253 23.2778C8.20957 22.9048 8.00004 22.399 8.00004 21.8715C8.00004 21.3441 8.20957 20.8382 8.58253 20.4653C8.95549 20.0923 9.46133 19.8828 9.98878 19.8828C10.5162 19.8828 11.0221 20.0923 11.395 20.4653L19.5232 28.5934L35.1888 12.9418C35.3734 12.7572 35.5927 12.6107 35.834 12.5107C36.0752 12.4108 36.3339 12.3593 36.595 12.3593C36.8562 12.3593 37.1148 12.4108 37.3561 12.5107C37.5974 12.6107 37.8166 12.7572 38.0013 12.9418C38.1859 13.1265 38.3324 13.3457 38.4324 13.587C38.5323 13.8283 38.5838 14.0869 38.5838 14.3481C38.5838 14.6092 38.5323 14.8679 38.4324 15.1091C38.3324 15.3504 38.1859 15.5697 38.0013 15.7543L37.9731 15.7262Z" fill="#00848F"/>
</svg>
