<svg width="100" height="100" viewBox="0 0 100 100" fill="none" xmlns="http://www.w3.org/2000/svg">
<path d="M82.063 22.284H82.057C82.0437 21.8628 81.8689 21.4629 81.5688 21.1671C81.2687 20.8713 80.8663 20.7022 80.445 20.695V20.692H77.085L77.084 81.096L77.085 81.106C77.085 82.006 76.364 82.733 75.468 82.75V82.755L24.562 82.753C24.1731 82.7523 23.797 82.6138 23.5006 82.3621C23.2042 82.1103 23.0066 81.7616 22.943 81.378V77.776H70.348V77.773C70.359 77.773 70.369 77.776 70.379 77.776C71.289 77.776 72.025 77.041 72.025 76.13L72.023 76.118L72.025 13.916C72.025 13.006 71.289 12.269 70.379 12.27L70.349 12.273V12.269H64.593V47.221C64.5937 47.379 64.5464 47.5335 64.4575 47.6642C64.3686 47.7949 64.2422 47.8955 64.095 47.9529C63.9477 48.0103 63.7865 48.0217 63.6327 47.9857C63.4788 47.9496 63.3394 47.8678 63.233 47.751L57.566 42.084H57.547C57.484 42.0091 57.4055 41.9488 57.3169 41.9072C57.2284 41.8656 57.1318 41.8437 57.034 41.843C56.9362 41.8437 56.8396 41.8656 56.7511 41.9072C56.6625 41.9488 56.584 42.0091 56.521 42.084H56.502L50.793 47.793H50.784C50.6731 47.8986 50.5335 47.9693 50.3827 47.9962C50.2319 48.023 50.0765 48.0049 49.9359 47.944C49.7953 47.8831 49.6758 47.7821 49.5922 47.6537C49.5087 47.5253 49.4648 47.3752 49.466 47.222V12.27H19.583C18.673 12.27 17.937 13.006 17.937 13.916C17.937 13.937 17.943 13.958 17.943 13.979V86.023C17.942 86.043 17.937 86.062 17.937 86.082C17.937 86.102 17.942 86.121 17.943 86.141V86.217H17.951C17.9834 86.6278 18.1693 87.0114 18.4717 87.2914C18.7741 87.5714 19.1709 87.7272 19.583 87.728V87.729L80.416 87.731H80.445V87.728C80.8762 87.7212 81.2875 87.545 81.59 87.2377C81.8925 86.9303 82.0621 86.5163 82.062 86.085L82.061 86.075L82.063 22.284V22.284Z" fill="#00525D"/>
</svg>
